<svg id="Capa_1" enable-background="new 0 0 512 512" height="512" viewBox="0 0 512 512" width="512" xmlns="http://www.w3.org/2000/svg"><g><path d="m297.999 417h-27v-35.28h67.303l-10.394-114.24h-143.818l-10.394 114.24h67.303v35.28h-27c-24.813 0-45 20.187-45 45v35c0 8.284 6.716 15 15 15h144c8.284 0 15-6.716 15-15v-35c0-24.813-20.187-45-45-45z"/><path d="m303.572 0h-95.146l-11.213 123.24h117.571z"/><path d="m12.728 237.48h143.967l7.664-84.24h-144.009z"/><path d="m491.648 153.24h-144.01l7.665 84.24h143.967z"/><path d="m317.514 153.24h-123.03l-7.665 84.24h138.359z"/><path d="m507.81 331.867-5.826-64.387h-143.952l10.394 114.24h94.58c26.517 0 47.294-23.183 44.804-49.853z"/><path d="m4.192 331.824c-2.507 26.851 18.399 49.896 44.8 49.896h94.58l10.394-114.24h-143.953z"/><path d="m481.52 41.304c-2.199-23.547-21.459-41.304-44.8-41.304h-103.024l11.213 123.24h144.025z"/><path d="m75.278 0c-23.342 0-42.601 17.757-44.805 41.347l-7.409 81.893h144.025l11.213-123.24z"/></g></svg>