<svg id="Capa_1" enable-background="new 0 0 512 512" height="512" viewBox="0 0 512 512" width="512" xmlns="http://www.w3.org/2000/svg"><g><path d="m226.177 146.11c0-41.465-33.735-75.2-75.2-75.2s-75.2 33.735-75.2 75.2c0 41.466 33.735 75.2 75.2 75.2s75.2-33.734 75.2-75.2zm-75.201 45.2c-24.923 0-45.2-20.277-45.2-45.201 0-24.923 20.277-45.2 45.2-45.2 24.924 0 45.201 20.277 45.201 45.2 0 24.925-20.277 45.201-45.201 45.201z"/><path d="m492.134 196.175h-21.382v-31.174c0-8.284-6.716-15-15-15s-15 6.716-15 15v31.174h-58.143v-31.174c0-8.284-6.716-15-15-15s-15 6.716-15 15v31.174h-21.382c-8.284 0-15 6.716-15 15s6.716 15 15 15h9.918l-.295 41.019c-.634 27.77 20.281 54.555 55.831 54.555v85.115c0 41.43-33.706 75.136-75.136 75.136h-78.919c-41.43 0-75.136-33.706-75.136-75.136v-122.664c10.549 4.03 13.1 10.027 22.499 7.508 4.28-1.146 7.834-4.126 9.709-8.141 4.034-8.638 10.537-15.726 18.804-20.499 8.269-4.773 17.661-6.862 27.155-6.035 9.297.808 17.047-6.983 16.243-16.242-1.683-19.374 8.922-37.733 26.535-45.959 8.444-3.944 11.278-14.56 5.945-22.187-11.145-15.937-11.14-37.139 0-53.069 5.341-7.639 2.486-18.249-5.945-22.187-17.621-8.23-28.217-26.594-26.535-45.959.806-9.277-6.962-17.047-16.243-16.242-19.335 1.679-37.714-8.883-45.958-26.534-3.944-8.444-14.562-11.278-22.187-5.945-15.938 11.145-37.14 11.139-53.069 0-7.637-5.341-18.249-2.486-22.187 5.945-8.243 17.65-26.633 28.219-45.958 26.534-9.279-.809-17.048 6.967-16.243 16.243 1.678 19.296-8.849 37.699-26.534 45.958-8.444 3.944-11.278 14.56-5.945 22.187 11.145 15.938 11.139 37.14 0 53.069-5.341 7.639-2.486 18.249 5.945 22.187 17.585 8.213 28.221 26.553 26.534 45.958-.807 9.298 6.988 17.051 16.243 16.243 19.324-1.686 37.716 8.886 45.958 26.534 3.944 8.444 14.56 11.276 22.187 5.945 4.031-2.819 8.427-4.946 13.048-6.351v123.703c-.001 57.972 47.163 105.136 105.135 105.136h78.919c57.972 0 105.136-47.164 105.136-105.136v-85.114h2.059c28.941 0 52.588-23.038 53.327-51.984.002-.088.004-.177.004-.265l.338-43.326h9.725c8.284 0 15-6.716 15-15s-6.716-15-15-15zm-370.92 61.009c-12.379-16.424-31.129-27.253-51.55-29.763-2.509-20.417-13.334-39.167-29.762-51.549 8.035-18.937 8.036-40.587 0-59.525 16.427-12.382 27.253-31.132 29.762-51.55 20.418-2.509 39.167-13.334 51.55-29.762 18.937 8.035 40.587 8.035 59.525 0 12.38 16.426 31.13 27.253 51.549 29.763 2.51 20.417 13.335 39.167 29.763 51.549-8.036 18.935-8.036 40.587 0 59.525-16.428 12.382-27.252 31.132-29.763 51.55-10.079 1.239-19.833 4.495-28.787 9.664-8.953 5.168-16.65 11.988-22.763 20.098-18.747-7.956-40.423-8.106-59.524 0zm330.859 11.933c-.384 12.701-10.611 22.633-23.333 22.633h-34.56c-12.157 0-23.41-9.439-23.331-24.214l.298-41.361h81.262z"/></g></svg>